<?xml version="1.0"?>
<svg xmlns="http://www.w3.org/2000/svg" xmlns:xlink="http://www.w3.org/1999/xlink" version="1.1" id="Capa_1" x="0px" y="0px" viewBox="0 0 197.737 197.737" style="enable-background:new 0 0 197.737 197.737;" xml:space="preserve" width="512px" height="512px"><g><path d="M167.619,0h-137.5c-2.762,0-5,2.239-5,5v187.737c0,2.761,2.238,5,5,5h137.5c2.762,0,5-2.239,5-5V5  C172.619,2.239,170.38,0,167.619,0z M96.403,21.358h46.5c2.762,0,5,2.239,5,5c0,2.761-2.238,5-5,5h-46.5c-2.762,0-5-2.239-5-5  C91.403,23.597,93.641,21.358,96.403,21.358z M96.403,47.108h46.5c2.762,0,5,2.239,5,5c0,2.761-2.238,5-5,5h-46.5  c-2.762,0-5-2.239-5-5C91.403,49.347,93.641,47.108,96.403,47.108z M58.245,39.55c-1.881-1.382-3.109-3.602-3.109-6.109v-4.5  c0-4.181,3.402-7.583,7.584-7.583s7.583,3.402,7.583,7.583v4.5c0,2.507-1.228,4.728-3.109,6.109  c5.898,1.375,10.31,6.664,10.31,12.975c0,2.761-2.238,5-5,5H52.935c-2.762,0-5-2.239-5-5C47.935,46.214,52.347,40.925,58.245,39.55z   M52.834,72.858h90.068c2.762,0,5,2.239,5,5c0,2.761-2.238,5-5,5H52.834c-2.762,0-5-2.239-5-5  C47.834,75.097,50.073,72.858,52.834,72.858z M52.834,98.608h90.068c2.762,0,5,2.239,5,5c0,2.761-2.238,5-5,5H52.834  c-2.762,0-5-2.239-5-5C47.834,100.847,50.073,98.608,52.834,98.608z M52.834,124.358h90.068c2.762,0,5,2.239,5,5  c0,2.761-2.238,5-5,5H52.834c-2.762,0-5-2.239-5-5C47.834,126.597,50.073,124.358,52.834,124.358z M78.084,170.251h-25.25  c-2.762,0-5-2.239-5-5c0-2.761,2.238-5,5-5h25.25c2.762,0,5,2.239,5,5C83.084,168.013,80.846,170.251,78.084,170.251z   M144.903,170.251h-25.25c-2.762,0-5-2.239-5-5c0-2.761,2.238-5,5-5h25.25c2.762,0,5,2.239,5,5  C149.903,168.013,147.665,170.251,144.903,170.251z" data-original="#000000" class="active-path" data-old_color="#000000" fill="#FFFFFF"/></g> </svg>
